<svg width="104" height="40" viewBox="0 0 104 40" fill="none" xmlns="http://www.w3.org/2000/svg">
<g clip-path="url(#clip0_20_993)">
<path d="M20.9991 15.3253L20.351 17.5603C18.2542 15.7609 15.5665 14.6624 12.4785 14.6624C5.31138 14.6624 -0.0449219 20.0225 -0.0449219 27.182C-0.0449219 34.3414 5.31138 39.7583 12.4785 39.7583C15.5284 39.7583 18.178 38.6977 20.2175 36.8983L20.7894 39.0575H25.8216V15.3253H20.9991ZM12.9932 33.6785C9.23807 33.6785 6.4932 30.8753 6.4932 27.182C6.4932 23.4507 9.23807 20.6854 12.9932 20.6854C16.7483 20.6854 19.4932 23.4507 19.4932 27.182C19.4932 30.9132 16.7674 33.6785 12.9932 33.6785ZM49.0196 39.0386L40.8422 26.5569L48.5431 15.3064H41.4712L37.0108 22.2006L32.8935 15.3064H25.5929L33.1604 26.86L25.0592 39.0386H32.1692L36.9917 31.2162L41.719 39.0386H49.0196ZM70.4067 27.1441C70.4067 20.2877 65.3744 14.6624 58.0167 14.6624C50.9448 14.6624 45.6266 20.0604 45.6266 27.182C45.6266 34.3035 50.9829 39.7583 58.0167 39.7583C63.5826 39.7583 68.1384 36.4627 69.873 31.2731H63.1061C62.134 32.9777 60.285 34.0384 58.0167 34.0384C54.8715 34.0384 52.7557 32.239 52.1838 28.9813H70.2733C70.3495 28.3752 70.4067 27.7502 70.4067 27.1441ZM58.0167 20.1551C60.9331 20.1551 63.0108 21.7461 63.9448 24.644H52.3554C53.0988 21.8218 55.1384 20.1551 58.0167 20.1551ZM71.0167 39.0386H77.4785V6.78322H71.0167V39.0386ZM99.1516 15.3253L98.4844 17.5603C96.4067 15.7609 93.7 14.6624 90.612 14.6624C83.4448 14.6624 78.0885 20.0225 78.0885 27.182C78.0885 34.3414 83.4448 39.7583 90.612 39.7583C93.6618 39.7583 96.3114 38.6977 98.351 36.8983L98.9228 39.0575H103.955V15.3253H99.1516ZM91.1457 33.6785C87.3906 33.6785 84.6457 30.8753 84.6457 27.182C84.6457 23.4507 87.3906 20.6854 91.1457 20.6854C94.9008 20.6854 97.6457 23.4507 97.6457 27.182C97.6457 30.9132 94.9008 33.6785 91.1457 33.6785Z" fill="white"/>
<path d="M18.0631 2.92773L23.0196 2.92791L24.4998 5.30282L18.0348 13.3459L16.5383 11.0308L18.0631 2.92773Z" fill="#FFFC52"/>
<path d="M16.5391 11.03L23.02 2.92743L24.5528 5.31054L17.988 13.4131L16.5391 11.03Z" fill="#F19422"/>
</g>
<defs>
<clipPath id="clip0_20_993">
<rect width="104" height="40" fill="white"/>
</clipPath>
</defs>
</svg>
