<svg width="64" height="64" viewBox="0 0 64 64" fill="none" xmlns="http://www.w3.org/2000/svg">
<rect width="64" height="64" fill="black"/>
<path d="M39.9661 26.5793L39.2896 28.878C37.101 27.0273 34.2955 25.8975 31.0722 25.8975C23.591 25.8975 18 31.4104 18 38.7741C18 46.1377 23.591 51.7091 31.0722 51.7091C34.2557 51.7091 37.0214 50.6182 39.1503 48.7675L39.7472 50.9883H45V26.5793H39.9661ZM31.6094 45.4559C27.6898 45.4559 24.8246 42.5728 24.8246 38.7741C24.8246 34.9364 27.6898 32.0923 31.6094 32.0923C35.5291 32.0923 38.3943 34.9364 38.3943 38.7741C38.3943 42.6117 35.549 45.4559 31.6094 45.4559Z" fill="white"/>
<path d="M36.9028 13.3054L42.076 13.3054L43.6208 15.7319L36.873 23.95L35.3111 21.5846L36.9028 13.3054Z" fill="#FFFC52"/>
<path d="M35.3105 21.5845L42.0755 13.3053L43.6755 15.7404L36.823 24.0196L35.3105 21.5845Z" fill="#F19422"/>
</svg>
